HIERARCHY
ROOT hips
{
	OFFSET 0.000646 0.033049 0.075071
	CHANNELS 6 Xposition Yposition Zposition Xrotation Yrotation Zrotation
	JOINT spine
	{
		OFFSET 0.000000 -0.038000 0.173800
		CHANNELS 3 Xrotation Yrotation Zrotation
		JOINT ribs
		{
			OFFSET 0.000000 -0.016800 0.158100
			CHANNELS 3 Xrotation Yrotation Zrotation
			JOINT neck
			{
				OFFSET 0.000000 0.011000 0.316400
				CHANNELS 6 Xposition Yposition Zposition Xrotation Yrotation Zrotation
				JOINT head
				{
					OFFSET 0.000000 -0.014667 0.081616
					CHANNELS 3 Xrotation Yrotation Zrotation
					End Site
					{
						OFFSET 0.000000 -0.021433 0.194884
					}
				}
			}
			JOINT shoulder.L
			{
				OFFSET 0.018300 -0.037942 0.263300
				CHANNELS 6 Xposition Yposition Zposition Yrotation Xrotation Zrotation
				JOINT upper_arm.L
				{
					OFFSET 0.170777 0.064242 -0.042625
					CHANNELS 6 Xposition Yposition Zposition Xrotation Yrotation Zrotation
					JOINT forearm.L
					{
						OFFSET 0.159112 0.025960 -0.235849
						CHANNELS 3 Xrotation Yrotation Zrotation
						JOINT hand.L
						{
							OFFSET 0.158412 -0.003460 -0.232811
							CHANNELS 3 Xrotation Yrotation Zrotation
							JOINT palm.01.L
							{
								OFFSET 0.034433 -0.026806 -0.041793
								CHANNELS 6 Xposition Yposition Zposition Yrotation Xrotation Zrotation
								JOINT finger_index.01.L
								{
									OFFSET 0.016602 -0.007820 -0.025758
									CHANNELS 3 Xrotation Yrotation Zrotation
									JOINT finger_index.02.L
									{
										OFFSET 0.019244 -0.011207 -0.036847
										CHANNELS 3 Xrotation Yrotation Zrotation
										JOINT finger_index.03.L
										{
											OFFSET 0.010154 -0.003668 -0.019664
											CHANNELS 3 Xrotation Yrotation Zrotation
											End Site
											{
												OFFSET 0.008292 -0.003979 -0.014787
											}
										}
									}
								}
								JOINT thumb.01.L
								{
									OFFSET -0.041298 -0.006083 0.018185
									CHANNELS 6 Xposition Yposition Zposition Xrotation Yrotation Zrotation
									JOINT thumb.02.L
									{
										OFFSET 0.008336 -0.021555 -0.023309
										CHANNELS 3 Xrotation Yrotation Zrotation
										JOINT thumb.03.L
										{
											OFFSET 0.001687 -0.021762 -0.025721
											CHANNELS 3 Xrotation Yrotation Zrotation
											End Site
											{
												OFFSET 0.000916 -0.011951 -0.013450
											}
										}
									}
								}
							}
							JOINT palm.02.L
							{
								OFFSET 0.036131 -0.010300 -0.043143
								CHANNELS 6 Xposition Yposition Zposition Yrotation Xrotation Zrotation
								JOINT finger_middle.01.L
								{
									OFFSET 0.024782 -0.002753 -0.024426
									CHANNELS 3 Xrotation Yrotation Zrotation
									JOINT finger_middle.02.L
									{
										OFFSET 0.018280 -0.000394 -0.037418
										CHANNELS 3 Xrotation Yrotation Zrotation
										JOINT finger_middle.03.L
										{
											OFFSET 0.010715 -0.001797 -0.020855
											CHANNELS 3 Xrotation Yrotation Zrotation
											End Site
											{
												OFFSET 0.008840 -0.000512 -0.019086
											}
										}
									}
								}
							}
							JOINT palm.03.L
							{
								OFFSET 0.035431 0.005200 -0.043443
								CHANNELS 6 Xposition Yposition Zposition Yrotation Xrotation Zrotation
								JOINT finger_ring.01.L
								{
									OFFSET 0.020385 0.000546 -0.025218
									CHANNELS 3 Xrotation Yrotation Zrotation
									JOINT finger_ring.02.L
									{
										OFFSET 0.018481 0.009326 -0.031040
										CHANNELS 3 Xrotation Yrotation Zrotation
										JOINT finger_ring.03.L
										{
											OFFSET 0.010751 0.004096 -0.020003
											CHANNELS 3 Xrotation Yrotation Zrotation
											End Site
											{
												OFFSET 0.007874 0.002746 -0.016015
											}
										}
									}
								}
							}
							JOINT palm.04.L
							{
								OFFSET 0.032031 0.020400 -0.043743
								CHANNELS 6 Xposition Yposition Zposition Yrotation Xrotation Zrotation
								JOINT finger_pinky.01.L
								{
									OFFSET 0.016186 0.004305 -0.018955
									CHANNELS 3 Xrotation Yrotation Zrotation
									JOINT finger_pinky.02.L
									{
										OFFSET 0.019005 0.014654 -0.032860
										CHANNELS 3 Xrotation Yrotation Zrotation
										JOINT finger_pinky.03.L
										{
											OFFSET 0.006748 0.006530 -0.012475
											CHANNELS 3 Xrotation Yrotation Zrotation
											End Site
											{
												OFFSET 0.007409 0.004042 -0.010064
											}
										}
									}
								}
							}
						}
					}
				}
			}
			JOINT shoulder.R
			{
				OFFSET -0.018300 -0.037942 0.263300
				CHANNELS 6 Xposition Yposition Zposition Yrotation Xrotation Zrotation
				JOINT upper_arm.R
				{
					OFFSET -0.170777 0.064242 -0.042625
					CHANNELS 6 Xposition Yposition Zposition Xrotation Yrotation Zrotation
					JOINT forearm.R
					{
						OFFSET -0.159112 0.023784 -0.235849
						CHANNELS 3 Xrotation Yrotation Zrotation
						JOINT hand.R
						{
							OFFSET -0.161350 -0.007056 -0.241627
							CHANNELS 3 Xrotation Yrotation Zrotation
							JOINT palm.01.R
							{
								OFFSET -0.031495 -0.021034 -0.032978
								CHANNELS 6 Xposition Yposition Zposition Yrotation Xrotation Zrotation
								JOINT finger_index.01.R
								{
									OFFSET -0.017194 -0.007820 -0.036093
									CHANNELS 3 Xrotation Yrotation Zrotation
									JOINT finger_index.02.R
									{
										OFFSET -0.021506 -0.007395 -0.033743
										CHANNELS 3 Xrotation Yrotation Zrotation
										JOINT finger_index.03.R
										{
											OFFSET -0.012141 -0.004809 -0.022684
											CHANNELS 3 Xrotation Yrotation Zrotation
											End Site
											{
												OFFSET -0.010397 -0.002060 -0.014436
											}
										}
									}
								}
								JOINT thumb.01.R
								{
									OFFSET 0.041298 -0.006083 0.018185
									CHANNELS 6 Xposition Yposition Zposition Xrotation Yrotation Zrotation
									JOINT thumb.02.R
									{
										OFFSET -0.006510 -0.023230 -0.025034
										CHANNELS 3 Xrotation Yrotation Zrotation
										JOINT thumb.03.R
										{
											OFFSET 0.000046 -0.023831 -0.033054
											CHANNELS 3 Xrotation Yrotation Zrotation
											End Site
											{
												OFFSET -0.000561 -0.011904 -0.016115
											}
										}
									}
								}
							}
							JOINT palm.02.R
							{
								OFFSET -0.033192 -0.004529 -0.034328
								CHANNELS 6 Xposition Yposition Zposition Yrotation Xrotation Zrotation
								JOINT finger_middle.01.R
								{
									OFFSET -0.024698 -0.003038 -0.035506
									CHANNELS 3 Xrotation Yrotation Zrotation
									JOINT finger_middle.02.R
									{
										OFFSET -0.020926 -0.002672 -0.035709
										CHANNELS 3 Xrotation Yrotation Zrotation
										JOINT finger_middle.03.R
										{
											OFFSET -0.011142 -0.002081 -0.021046
											CHANNELS 3 Xrotation Yrotation Zrotation
											End Site
											{
												OFFSET -0.010122 -0.000227 -0.016923
											}
										}
									}
								}
							}
							JOINT palm.03.R
							{
								OFFSET -0.032492 0.010971 -0.034627
								CHANNELS 6 Xposition Yposition Zposition Yrotation Xrotation Zrotation
								JOINT finger_ring.01.R
								{
									OFFSET -0.026153 -0.002586 -0.031664
									CHANNELS 3 Xrotation Yrotation Zrotation
									JOINT finger_ring.02.R
									{
										OFFSET -0.017018 0.008572 -0.036333
										CHANNELS 3 Xrotation Yrotation Zrotation
										JOINT finger_ring.03.R
										{
											OFFSET -0.010001 0.003782 -0.018315
											CHANNELS 3 Xrotation Yrotation Zrotation
											End Site
											{
												OFFSET -0.006419 0.002186 -0.012408
											}
										}
									}
								}
							}
							JOINT palm.04.R
							{
								OFFSET -0.029092 0.026171 -0.034927
								CHANNELS 6 Xposition Yposition Zposition Yrotation Xrotation Zrotation
								JOINT finger_pinky.01.R
								{
									OFFSET -0.019414 0.001173 -0.030593
									CHANNELS 3 Xrotation Yrotation Zrotation
									JOINT finger_pinky.02.R
									{
										OFFSET -0.018396 0.009528 -0.023839
										CHANNELS 3 Xrotation Yrotation Zrotation
										JOINT finger_pinky.03.R
										{
											OFFSET -0.007650 0.005960 -0.014690
											CHANNELS 3 Xrotation Yrotation Zrotation
											End Site
											{
												OFFSET -0.007244 0.003710 -0.013306
											}
										}
									}
								}
							}
						}
					}
				}
			}
		}
	}
	JOINT thigh.L
	{
		OFFSET 0.098000 -0.042800 0.062100
		CHANNELS 6 Xposition Yposition Zposition Xrotation Yrotation Zrotation
		JOINT shin.L
		{
			OFFSET 0.021588 -0.041000 -0.440192
			CHANNELS 3 Xrotation Yrotation Zrotation
			JOINT foot.L
			{
				OFFSET -0.013631 0.061079 -0.526260
				CHANNELS 3 Xrotation Yrotation Zrotation
				JOINT toe.L
				{
					OFFSET -0.007957 -0.151393 -0.060391
					CHANNELS 3 Xrotation Yrotation Zrotation
					End Site
					{
						OFFSET 0.000000 -0.067200 0.000000
					}
				}
			}
			JOINT heel.L
			{
				OFFSET -0.013631 0.061079 -0.526260
				CHANNELS 3 Xrotation Yrotation Zrotation
				JOINT heel.02.L
				{
					OFFSET -0.045957 -0.032479 -0.105549
					CHANNELS 6 Xposition Yposition Zposition Xrotation Yrotation Zrotation
					End Site
					{
						OFFSET 0.080000 0.000000 0.000000
					}
				}
			}
		}
	}
	JOINT thigh.R
	{
		OFFSET -0.098000 -0.042800 0.062100
		CHANNELS 6 Xposition Yposition Zposition Xrotation Yrotation Zrotation
		JOINT shin.R
		{
			OFFSET -0.021588 -0.041000 -0.440192
			CHANNELS 3 Xrotation Yrotation Zrotation
			JOINT foot.R
			{
				OFFSET 0.013631 0.061079 -0.526260
				CHANNELS 3 Xrotation Yrotation Zrotation
				JOINT toe.R
				{
					OFFSET 0.007957 -0.151393 -0.060391
					CHANNELS 3 Xrotation Yrotation Zrotation
					End Site
					{
						OFFSET 0.000000 -0.067200 0.000000
					}
				}
			}
			JOINT heel.R
			{
				OFFSET 0.013631 0.061079 -0.526260
				CHANNELS 3 Xrotation Yrotation Zrotation
				JOINT heel.02.R
				{
					OFFSET 0.045957 -0.032479 -0.105549
					CHANNELS 6 Xposition Yposition Zposition Xrotation Yrotation Zrotation
					End Site
					{
						OFFSET -0.080000 0.000000 0.000000
					}
				}
			}
		}
	}
}
MOTION
Frames: 4
Frame Time: 0.041667
0.000646 -0.263503 0.075071 0.000001 0.000000 0.000000 -35.710073 19.131133 -26.077464 20.498759 6.064660 68.777553 0.000000 0.011000 0.316400 11.189365 -3.351195 -22.275704 -1.094138 -16.246235 0.368706 0.018300 -0.037942 0.263300 -0.000000 0.000001 0.000001 0.170777 0.064242 -0.042625 -26.488503 22.430594 -42.827923 -96.088911 -18.841207 -87.954340 -15.256040 -45.188487 -35.622363 0.034433 -0.026806 -0.041793 13.137999 2.479426 -2.308412 -1.127729 22.501251 -6.832036 2.235758 13.961716 -2.366206 -0.373772 5.918087 -1.849201 -0.041298 -0.006083 0.018185 3.146981 -14.914585 7.996802 35.643325 14.081873 -14.340124 17.020311 6.988462 -6.499876 0.036131 -0.010300 -0.043143 11.061473 0.749939 -0.462930 0.135831 23.950487 -0.845130 -1.028757 14.127211 -1.238526 0.093912 7.667165 -0.158458 0.035431 0.005200 -0.043443 14.714447 -0.478032 -0.142403 0.143947 22.234018 5.892501 -2.650144 16.074818 2.059980 -1.634072 8.191311 0.714275 0.032031 0.020400 -0.043743 23.419061 -3.950841 1.472588 -1.125481 22.640107 11.488741 0.747654 8.282001 4.507343 -0.370033 2.255393 0.629006 -0.018300 -0.037942 0.263300 0.000001 0.000001 0.000002 -0.170777 0.064242 -0.042625 -53.036566 13.568140 18.128143 -5.678485 20.100509 58.587983 -7.240477 27.872127 -8.420320 -0.031495 -0.021034 -0.032978 -10.310255 1.620419 1.385379 -1.635485 -22.332772 6.295692 2.648323 -27.658779 4.880555 3.460255 -5.918326 -1.661506 0.041298 -0.006083 0.018185 -0.927448 10.205798 -4.433580 33.667785 -9.597004 9.188082 15.550712 -3.168295 2.256254 -0.033192 -0.004529 -0.034327 -9.583305 0.597708 0.378169 -0.623040 -26.770733 2.166651 0.358444 -20.714080 1.052070 1.755226 -9.081698 -0.882165 -0.032492 0.010971 -0.034627 -19.386481 0.542953 1.231639 -2.143253 -24.343252 -5.864332 -1.260602 -10.724481 -1.655346 -0.708043 -4.670314 -0.497796 -0.029092 0.026171 -0.034927 -29.537368 -1.809939 0.562109 -0.110422 -16.777854 -7.212427 -0.835906 -13.352300 -4.471867 -1.464482 -6.062190 -0.943726 0.098000 -0.042800 0.062100 -19.156821 -4.708474 38.138339 24.714047 -5.784556 -2.928566 2.769038 11.158220 48.516224 -10.949227 3.188009 -0.564987 2.769046 11.158209 28.516207 -0.045957 -0.032479 -0.105549 -0.000000 -0.000001 0.000003 -0.098000 -0.042800 0.062100 -110.251869 46.543330 82.612716 55.869462 -13.777286 -21.407638 20.262972 4.535585 45.782878 -12.012385 -7.212950 -3.883206 20.308881 4.556911 45.778858 0.045957 -0.032479 -0.105549 -0.000002 -0.000001 0.000001 
0.000646 -0.249514 0.075071 0.000001 0.000000 0.000000 -34.667120 17.918224 -25.521787 19.802730 5.264101 65.629123 -0.000000 0.011000 0.316400 10.688944 -3.135162 -20.724063 -1.082548 -15.712420 0.218492 0.018300 -0.037942 0.263300 -0.000000 0.000000 -0.000002 0.170777 0.064242 -0.042625 -25.874949 22.377450 -41.192082 -94.035975 -21.273883 -85.970662 -13.269160 -44.321927 -33.175718 0.034433 -0.026806 -0.041793 13.138003 2.479426 -2.308411 -1.127733 22.501245 -6.832036 2.235759 13.961719 -2.366203 -0.373770 5.918093 -1.849198 -0.041298 -0.006083 0.018185 3.146978 -14.914589 7.996806 35.643322 14.081872 -14.340122 17.020312 6.988462 -6.499875 0.036131 -0.010300 -0.043143 11.061474 0.749938 -0.462930 0.135831 23.950485 -0.845128 -1.028757 14.127211 -1.238526 0.093912 7.667164 -0.158458 0.035431 0.005200 -0.043443 14.714447 -0.478034 -0.142400 0.143948 22.234018 5.892506 -2.650142 16.074816 2.059978 -1.634069 8.191314 0.714275 0.032031 0.020400 -0.043743 23.419064 -3.950844 1.472588 -1.125485 22.640107 11.488740 0.747654 8.281997 4.507343 -0.370028 2.255391 0.629006 -0.018300 -0.037942 0.263300 0.000000 0.000000 -0.000004 -0.170777 0.064242 -0.042625 -50.226134 12.224898 16.475446 -5.073133 18.362743 56.448296 -6.326685 27.508821 -8.506003 -0.031495 -0.021034 -0.032978 -10.310261 1.620419 1.385378 -1.635484 -22.332770 6.295694 2.648323 -27.658776 4.880555 3.460253 -5.918330 -1.661504 0.041298 -0.006083 0.018185 -0.927451 10.205799 -4.433580 33.667782 -9.597002 9.188081 15.550710 -3.168294 2.256254 -0.033192 -0.004529 -0.034328 -9.583306 0.597708 0.378168 -0.623040 -26.770733 2.166651 0.358443 -20.714077 1.052071 1.755226 -9.081699 -0.882167 -0.032492 0.010971 -0.034627 -19.386481 0.542953 1.231638 -2.143254 -24.343254 -5.864332 -1.260602 -10.724481 -1.655346 -0.708042 -4.670313 -0.497797 -0.029092 0.026171 -0.034927 -29.537368 -1.809939 0.562108 -0.110422 -16.777858 -7.212428 -0.835907 -13.352302 -4.471868 -1.464482 -6.062190 -0.943726 0.098000 -0.042800 0.062100 -18.352910 -4.209842 36.389568 23.551877 -5.487365 -2.848200 3.033683 10.651262 48.025615 -10.432944 3.035628 -0.552089 3.033691 10.651251 28.025612 -0.045957 -0.032479 -0.105549 0.000001 0.000001 0.000001 -0.098000 -0.042800 0.062100 -99.396697 49.693147 72.451034 55.303909 -12.800606 -19.446088 19.716000 4.223636 44.130419 -11.431686 -6.892296 -3.665359 19.769914 4.247788 44.126123 0.045957 -0.032479 -0.105549 0.000001 0.000001 -0.000001 
0.000646 -0.234978 0.075071 0.000001 0.000000 0.000000 -33.557962 16.724215 -24.892433 19.024437 4.463827 62.308237 0.000000 0.011000 0.316400 10.164611 -2.916329 -19.222864 -1.073969 -15.159210 0.087303 0.018300 -0.037942 0.263300 0.000001 0.000000 -0.000001 0.170777 0.064242 -0.042625 -25.214168 22.333470 -39.475293 -91.707488 -23.716355 -83.710143 -11.267301 -43.358536 -30.692015 0.034433 -0.026806 -0.041793 13.138001 2.479425 -2.308411 -1.127735 22.501247 -6.832041 2.235758 13.961719 -2.366205 -0.373769 5.918095 -1.849201 -0.041298 -0.006083 0.018185 3.146977 -14.914587 7.996805 35.643329 14.081872 -14.340126 17.020312 6.988462 -6.499875 0.036131 -0.010300 -0.043143 11.061473 0.749940 -0.462929 0.135830 23.950489 -0.845130 -1.028758 14.127209 -1.238529 0.093907 7.667163 -0.158459 0.035431 0.005200 -0.043443 14.714447 -0.478033 -0.142401 0.143947 22.234014 5.892505 -2.650143 16.074814 2.059978 -1.634071 8.191313 0.714274 0.032031 0.020400 -0.043743 23.419059 -3.950841 1.472588 -1.125483 22.640108 11.488741 0.747653 8.281998 4.507343 -0.370030 2.255390 0.629008 -0.018300 -0.037942 0.263300 0.000001 -0.000000 0.000001 -0.170777 0.064242 -0.042625 -47.329089 10.729740 14.820582 -4.682607 16.684960 54.383998 -5.375974 27.127836 -8.588163 -0.031495 -0.021034 -0.032978 -10.310259 1.620420 1.385376 -1.635483 -22.332770 6.295696 2.648326 -27.658776 4.880555 3.460254 -5.918329 -1.661505 0.041298 -0.006083 0.018185 -0.927446 10.205799 -4.433580 33.667782 -9.597002 9.188083 15.550710 -3.168294 2.256254 -0.033192 -0.004529 -0.034327 -9.583310 0.597709 0.378169 -0.623041 -26.770733 2.166651 0.358443 -20.714077 1.052072 1.755227 -9.081694 -0.882167 -0.032492 0.010971 -0.034627 -19.386481 0.542953 1.231638 -2.143256 -24.343257 -5.864332 -1.260602 -10.724480 -1.655347 -0.708043 -4.670313 -0.497797 -0.029092 0.026171 -0.034927 -29.537368 -1.809938 0.562108 -0.110422 -16.777856 -7.212428 -0.835908 -13.352301 -4.471867 -1.464482 -6.062193 -0.943728 0.098000 -0.042800 0.062100 -17.498398 -3.715741 34.557940 22.342525 -5.179864 -2.758206 3.303685 10.121873 47.518924 -9.896352 2.877373 -0.537229 3.303693 10.121862 27.518924 -0.045957 -0.032479 -0.105549 -0.000000 0.000001 -0.000001 -0.098000 -0.042800 0.062100 -87.098279 51.179741 60.993815 54.420406 -11.811791 -17.604862 19.156422 3.927334 42.446682 -10.829711 -6.556651 -3.442516 19.218568 3.954137 42.442212 0.045957 -0.032479 -0.105549 -0.000002 -0.000001 0.000001 
0.000646 -0.220026 0.075071 0.000001 0.000000 0.000000 -32.387224 15.551933 -24.193809 18.167378 3.680189 58.844190 0.000000 0.011000 0.316400 9.620911 -2.697659 -17.772670 -1.067845 -14.588729 -0.026571 0.018300 -0.037942 0.263300 0.000001 -0.000000 -0.000003 0.170777 0.064242 -0.042625 -24.508939 22.301191 -37.690719 -89.086041 -26.118609 -81.154470 -9.276540 -42.303005 -28.201141 0.034433 -0.026806 -0.041793 13.138003 2.479429 -2.308412 -1.127730 22.501247 -6.832037 2.235757 13.961720 -2.366205 -0.373767 5.918093 -1.849201 -0.041298 -0.006083 0.018185 3.146982 -14.914587 7.996803 35.643322 14.081872 -14.340122 17.020316 6.988463 -6.499876 0.036131 -0.010300 -0.043143 11.061475 0.749941 -0.462931 0.135832 23.950490 -0.845129 -1.028757 14.127213 -1.238526 0.093909 7.667164 -0.158458 0.035431 0.005200 -0.043443 14.714447 -0.478031 -0.142401 0.143946 22.234016 5.892506 -2.650141 16.074818 2.059978 -1.634072 8.191314 0.714273 0.032031 0.020400 -0.043743 23.419059 -3.950840 1.472588 -1.125484 22.640108 11.488740 0.747654 8.282001 4.507345 -0.370030 2.255389 0.629006 -0.018300 -0.037942 0.263300 -0.000000 -0.000000 -0.000001 -0.170777 0.064242 -0.042625 -44.378700 9.091187 13.191482 -4.481257 15.069682 52.376524 -4.393307 26.730941 -8.665558 -0.031495 -0.021034 -0.032978 -10.310256 1.620419 1.385378 -1.635481 -22.332770 6.295695 2.648326 -27.658772 4.880556 3.460253 -5.918329 -1.661506 0.041298 -0.006083 0.018185 -0.927446 10.205804 -4.433580 33.667785 -9.597005 9.188082 15.550708 -3.168293 2.256254 -0.033192 -0.004529 -0.034328 -9.583308 0.597708 0.378169 -0.623040 -26.770735 2.166651 0.358443 -20.714079 1.052070 1.755226 -9.081695 -0.882167 -0.032492 0.010971 -0.034627 -19.386479 0.542953 1.231638 -2.143254 -24.343254 -5.864332 -1.260602 -10.724480 -1.655345 -0.708043 -4.670316 -0.497796 -0.029092 0.026171 -0.034927 -29.537368 -1.809939 0.562109 -0.110422 -16.777854 -7.212426 -0.835906 -13.352301 -4.471869 -1.464481 -6.062187 -0.943727 0.098000 -0.042800 0.062100 -16.600126 -3.234329 32.659574 21.096837 -4.865147 -2.658740 3.576148 9.574601 47.000936 -9.344256 2.714685 -0.520392 3.576156 9.574592 27.000943 -0.045957 -0.032479 -0.105549 0.000001 0.000001 -0.000000 -0.098000 -0.042800 0.062100 -74.641701 50.908398 49.511570 53.221196 -10.823516 -15.877866 18.585112 3.647211 40.732444 -10.211985 -6.208819 -3.217054 18.655694 3.676448 40.727892 0.045957 -0.032479 -0.105549 0.000000 0.000000 -0.000002 
